<svg width="350" height="598" fill="none" xmlns="http://www.w3.org/2000/svg"><path opacity=".1" d="M358.186 434.088c-32.412 62.958-148.374-18.332-115.458-109.051 32.915-90.719 101.432-128.772 128.513-136.064 27.081-7.291 204.994 56.792 115.458 109.051s-96.101 73.106-128.513 136.064z" stroke="url(#paint0_linear)" stroke-width="3" stroke-linecap="round" stroke-dasharray="30 20 10 20"/><path opacity=".25" d="M353.938 443.389c-34.003 67.774-162.054-23.027-128.081-120.974 33.972-97.947 107.836-137.89 137.192-145.253 29.356-7.363 224.552 66.024 128.082 120.974-96.471 54.949-103.189 77.478-137.193 145.253z" stroke="url(#paint1_linear)" stroke-width="3" stroke-linecap="round" stroke-dasharray="30 20 10 20"/><path opacity=".4" d="M349.691 452.689c-35.595 72.591-175.735-27.722-140.705-132.896 35.03-105.175 114.241-147.009 145.871-154.443 31.631-7.433 244.11 75.256 140.705 132.897-103.405 57.641-110.277 81.852-145.871 154.442z" stroke="url(#paint2_linear)" stroke-width="3" stroke-linecap="round" stroke-dasharray="30 20 10 20"/><path opacity=".55" d="M345.444 461.99c-37.186 77.407-189.416-32.418-153.329-144.82 36.087-112.402 120.645-156.126 154.551-163.631 33.906-7.505 263.668 84.488 153.328 144.82-110.339 60.331-117.365 86.224-154.55 163.631z" stroke="url(#paint3_linear)" stroke-width="3" stroke-linecap="round" stroke-dasharray="30 20 10 20"/><path opacity=".7" d="M341.196 471.29c-38.777 82.224-203.096-37.112-165.952-156.742 37.144-119.63 127.049-165.244 163.23-172.82 36.181-7.577 283.226 93.719 165.952 156.742-117.274 63.023-124.453 90.597-163.23 172.82z" stroke="url(#paint4_linear)" stroke-width="3" stroke-linecap="round" stroke-dasharray="30 20 10 20"/><path opacity=".85" d="M336.949 480.591c-40.369 87.04-216.777-41.808-178.575-168.665 38.201-126.858 133.453-174.363 171.909-182.01 38.456-7.647 302.783 102.952 178.575 168.666-124.208 65.713-131.541 94.969-171.909 182.009z" stroke="url(#paint5_linear)" stroke-width="3" stroke-linecap="round" stroke-dasharray="30 20 10 20"/><path d="M332.702 489.892c-41.96 91.856-230.458-46.503-191.199-180.589 39.258-134.085 139.857-183.48 180.588-191.198 40.731-7.719 322.341 112.183 191.199 180.588-131.143 68.405-138.629 99.343-180.588 191.199z" stroke="url(#paint6_linear)" stroke-width="3" stroke-linecap="round" stroke-dasharray="30 20 10 20"/><defs><linearGradient id="paint0_linear" x1="253.609" y1="416.426" x2="456.953" y2="201.134" gradientUnits="userSpaceOnUse"><stop stop-color="#0F18FF"/><stop offset="1" stop-color="#05D2FF"/></linearGradient><linearGradient id="paint1_linear" x1="239.62" y1="422.004" x2="456.698" y2="192.172" gradientUnits="userSpaceOnUse"><stop stop-color="#0F18FF"/><stop offset="1" stop-color="#05D2FF"/></linearGradient><linearGradient id="paint2_linear" x1="225.632" y1="427.581" x2="456.442" y2="183.21" gradientUnits="userSpaceOnUse"><stop stop-color="#0F18FF"/><stop offset="1" stop-color="#05D2FF"/></linearGradient><linearGradient id="paint3_linear" x1="211.643" y1="433.159" x2="456.186" y2="174.248" gradientUnits="userSpaceOnUse"><stop stop-color="#0F18FF"/><stop offset="1" stop-color="#05D2FF"/></linearGradient><linearGradient id="paint4_linear" x1="197.654" y1="438.737" x2="455.93" y2="165.285" gradientUnits="userSpaceOnUse"><stop stop-color="#0F18FF"/><stop offset="1" stop-color="#05D2FF"/></linearGradient><linearGradient id="paint5_linear" x1="183.665" y1="444.314" x2="455.675" y2="156.323" gradientUnits="userSpaceOnUse"><stop stop-color="#0F18FF"/><stop offset="1" stop-color="#05D2FF"/></linearGradient><linearGradient id="paint6_linear" x1="169.677" y1="449.892" x2="455.419" y2="147.361" gradientUnits="userSpaceOnUse"><stop stop-color="#0F18FF"/><stop offset="1" stop-color="#05D2FF"/></linearGradient></defs></svg>