<svg width="337" height="291" fill="none" xmlns="http://www.w3.org/2000/svg"><path d="M53 42C16 169.5-77 175.742-77 175.742L-39.5-25.5l87.775-117.396L333.69-30.682S112.5-60.5 53 42z" stroke="url(#paint0_linear)" stroke-width="4" stroke-linecap="round" stroke-linejoin="round" stroke-dasharray="25 15 5 20"/><path d="M38.333 48.105C25.5 106.313-20 136-20 136V-20h140s-68.833 9.896-81.667 68.105z" fill="url(#paint1_linear)"/><path d="M30 38.5C19 88.5-20 114-20 114V-20h120s-59 8.5-70 58.5z" fill="url(#paint2_linear)"/><defs><linearGradient id="paint0_linear" x1="232.007" y1="-96.888" x2="5.657" y2="231.939" gradientUnits="userSpaceOnUse"><stop stop-color="#0F18FF"/><stop offset="1" stop-color="#05D2FF"/></linearGradient><linearGradient id="paint1_linear" x1="68.5" y1="100" x2="-30.817" y2="-48.789" gradientUnits="userSpaceOnUse"><stop stop-color="#0F18FF"/><stop offset="1" stop-color="#05D2FF"/></linearGradient><linearGradient id="paint2_linear" x1="90.5" y1="-20" x2="-20" y2="99.5" gradientUnits="userSpaceOnUse"><stop stop-color="#0F18FF"/><stop offset="1" stop-color="#05D2FF"/></linearGradient></defs></svg>